<svg width="40" height="40" viewBox="0 0 40 40" fill="none" xmlns="http://www.w3.org/2000/svg">
<path d="M0 20.0703C0 24.8065 1.64512 29.1676 4.41833 32.6377C5.68743 34.2321 7.19154 35.592 8.88367 36.7174C9.11868 36.905 9.4007 37.0457 9.63572 37.1864C10.8578 37.9366 12.1269 38.4994 13.49 38.9683C13.631 39.0152 13.819 39.0621 14.0071 39.109C14.4301 39.2497 14.8531 39.3434 15.2761 39.4372C15.4172 39.4841 15.6052 39.531 15.7462 39.531C17.1093 39.8124 18.5664 40 20.0235 40C20.5405 40 21.0576 40 21.5746 39.9531C21.7156 39.9531 21.8096 39.9062 21.9506 39.9062C23.8308 39.7186 25.6169 39.2966 27.309 38.64C27.4971 38.5463 27.6851 38.4994 27.8261 38.4056C28.3901 38.1711 29.0012 37.8898 29.5182 37.6084C29.6592 37.5146 29.8002 37.4208 29.9412 37.3739C29.9412 37.3739 29.9882 37.3739 29.9882 37.327C30.1293 37.2332 30.3173 37.1395 30.4583 37.0457C32.0564 36.0609 33.4665 34.8886 34.7356 33.5287C34.7826 33.4818 34.7826 33.4349 34.8296 33.4349C38.0259 29.871 40 25.1817 40 20.0234C40 8.95662 31.0223 0 19.9295 0C8.83666 0 0 9.0035 0 20.0703Z" fill="#FECF75"/>
<path d="M28.2485 35.3575L29.6116 37.6553C29.7526 37.5615 29.8937 37.4677 30.0347 37.4208C30.0347 37.4208 30.0817 37.4208 30.0817 37.3739C30.2227 37.2801 30.4107 37.1863 30.5517 37.0925C32.1498 36.1078 33.5599 34.9354 34.829 33.5755L34.594 33.1535L30.6457 34.5134L29.5176 34.8886L28.6246 35.2168L28.2485 35.3575Z" fill="#943E29"/>
<path d="M26.4626 32.0281L28.6247 35.2168L28.8128 35.4982L30.0819 37.3739C30.2229 37.2802 30.4109 37.1864 30.5519 37.0926C32.15 36.1078 33.5601 34.9355 34.8292 33.5756C34.8762 33.5287 34.8762 33.4818 34.9232 33.4818L33.7011 31.4185L30.8339 26.6823L30.7869 26.5885L30.6459 26.354C30.5989 26.2602 30.5519 26.2133 30.4579 26.1196L30.4109 26.0727C30.2229 25.8851 29.9879 25.7444 29.7058 25.6506C29.6588 25.6506 29.6118 25.6037 29.5648 25.6037C29.4708 25.6037 29.3768 25.6037 29.2828 25.6037C28.6248 25.6037 28.0137 25.9789 27.7787 26.6354L26.8856 28.98L26.6036 29.6834L26.2746 30.5744C26.0866 31.0434 26.1806 31.6061 26.4626 32.0281Z" fill="#FD6A3C"/>
<path d="M7.99077 26.6354L8.50781 32.3564L8.55482 32.7784L8.74283 34.7479L8.93085 36.7175C9.16586 36.905 9.44788 37.0457 9.6829 37.1864C10.905 37.9367 12.1741 38.4994 13.5372 38.9683C13.6782 39.0152 13.8662 39.0621 14.0542 39.109C14.4773 39.2497 14.9003 39.3435 15.3233 39.4373C15.4643 39.4842 15.6524 39.5311 15.7934 39.5311C17.1565 39.8124 18.6136 40 20.0707 40C20.5877 40 21.1048 40 21.6218 39.9531C21.7628 39.9531 21.8568 39.9062 21.9978 39.9062C23.878 39.7186 25.6641 39.2966 27.3562 38.6401C27.5442 38.5463 27.7323 38.4994 27.8733 38.4056C28.4373 38.1712 29.0484 37.8898 29.5654 37.6084C29.7064 37.5147 29.8474 37.4209 29.9884 37.374C29.9884 37.374 30.0354 37.374 30.0354 37.3271C30.1764 37.2333 30.3644 37.1395 30.5055 37.0457L30.5995 34.4666V33.9039L30.8815 27.3857C30.8815 27.245 30.8815 27.0575 30.8345 26.9168C30.8345 26.9168 30.8345 26.9168 30.8345 26.8699C30.8345 26.823 30.7875 26.7761 30.7875 26.7292C30.7875 26.6823 30.7875 26.6823 30.7405 26.6354C30.7405 26.6354 30.7405 26.5885 30.6935 26.5885C30.5995 26.4009 30.5055 26.2603 30.3645 26.1196L30.3174 26.0727C30.1294 25.8851 29.8944 25.7444 29.6124 25.6507L29.4714 25.6038L22.6559 23.5873L20.5877 22.9777L20.1647 22.884L19.4596 22.6964L17.1095 23.2122L15.5113 23.5405L15.0883 23.6342L9.35388 24.8535C9.21287 24.9004 9.02485 24.9473 8.88384 24.9941C8.3198 25.2286 7.94377 25.8851 7.99077 26.6354Z" fill="#FD6A3C"/>
<path d="M4.41895 32.5908C5.68804 34.1852 7.19215 35.5451 8.88428 36.6705C9.1193 36.8581 9.40132 36.9988 9.63634 37.1395L10.2474 35.592L11.5165 32.4502L11.7045 31.9812L12.7386 29.4021C13.4436 27.7139 12.6446 25.7444 10.9524 24.9941C10.4824 24.8066 10.0594 24.7128 9.58933 24.7128C9.35432 24.7128 9.07229 24.7597 8.83728 24.8066C7.7562 25.041 6.81612 25.8382 6.39309 26.9636L4.41895 32.2626V32.5908Z" fill="#FD6A3C"/>
<path d="M24.9116 12.4737C24.9116 12.4737 26.7448 11.4889 26.4628 10.1759C26.1807 8.86288 19.7883 6.98715 17.2501 9.19113C17.2501 9.19113 15.3699 8.90977 16.169 14.3963C16.968 19.8359 23.9716 15.4279 23.9716 15.4279" fill="#3B140B"/>
<path d="M25.2405 11.02C25.2405 11.02 27.5437 19.2732 22.2323 20.68L22.9843 25.1818C23.0783 25.6038 22.7963 26.0258 22.3733 26.1665C21.3392 26.4948 19.3181 26.823 17.2969 25.0411C17.0619 24.8535 16.9679 24.5721 17.0149 24.2908C17.2029 23.0716 17.6259 19.5546 17.4379 17.3506C17.4379 17.3506 15.2758 17.3037 15.4168 15.3811C15.5578 13.4584 17.0619 13.646 17.908 14.9121C17.908 14.9121 18.848 13.5522 18.566 11.3013C18.519 11.3013 22.5613 11.9579 25.2405 11.02Z" fill="#FAA08A"/>
<path d="M22.2325 20.6798C22.2325 20.6798 20.3054 20.8674 19.4593 19.3668C19.4593 19.3668 19.0363 21.5239 22.4205 21.8053L22.2325 20.6798Z" fill="#5A281D"/>
<path d="M24.9362 31.1535H15.981V33.8065H24.9362V31.1535Z" fill="#DC542A"/>
</svg>
