<svg width="18" height="19" viewBox="0 0 18 19" fill="none" xmlns="http://www.w3.org/2000/svg">
<path d="M2.75 8.5C2.75 5.04822 5.54822 2.25 9 2.25C12.4518 2.25 15.25 5.04822 15.25 8.5V15.75H2.75V8.5Z" stroke="gray" stroke-width="1.5"/>
<line x1="0.75" y1="15.75" x2="17.25" y2="15.75" stroke="gray" stroke-width="1.5" stroke-linecap="round"/>
<path d="M6.5 16.5C6.5 17.163 6.76339 17.7989 7.23223 18.2678C7.70107 18.7366 8.33696 19 9 19C9.66304 19 10.2989 18.7366 10.7678 18.2678C11.2366 17.7989 11.5 17.163 11.5 16.5L10 16.5C10 16.7652 9.89464 17.0196 9.70711 17.2071C9.51957 17.3946 9.26522 17.5 9 17.5C8.73478 17.5 8.48043 17.3946 8.29289 17.2071C8.10536 17.0196 8 16.7652 8 16.5L6.5 16.5Z" fill="gray"/>
<path d="M11.5 2.5C11.5 1.83696 11.2366 1.20107 10.7678 0.732233C10.2989 0.263392 9.66304 5.00582e-08 9 0C8.33696 -5.00582e-08 7.70107 0.263392 7.23223 0.732233C6.76339 1.20107 6.5 1.83696 6.5 2.5L8 2.5C8 2.23478 8.10536 1.98043 8.29289 1.79289C8.48043 1.60536 8.73478 1.5 9 1.5C9.26522 1.5 9.51957 1.60536 9.70711 1.79289C9.89464 1.98043 10 2.23478 10 2.5H11.5Z" fill="gray"/>
</svg>
