<svg width="13" height="18" viewBox="0 0 13 18" fill="none" xmlns="http://www.w3.org/2000/svg">
<path d="M9.84275 8.57538C10.4989 8.27843 11.0187 7.8328 11.402 7.23892C11.7854 6.64483 11.977 5.99222 11.977 5.28068C11.977 4.62453 11.8216 4.03231 11.5107 3.50379C11.1998 2.9753 10.8115 2.55236 10.3452 2.2346C9.87895 1.91683 9.3505 1.70795 8.75988 1.60781C8.66372 1.59155 8.55627 1.57699 8.44361 1.56324V0.624711C8.44361 0.279657 8.16389 0 7.81887 0H6.56948C6.22442 0 5.94476 0.279657 5.94476 0.624711V1.45766H4.64182V0.624711C4.64182 0.279657 4.36216 0 4.01711 0H2.76768C2.42263 0 2.14297 0.279657 2.14297 0.624711V1.45766H0V16.6465H2.14338V17.3753C2.14338 17.7203 2.42304 18 2.76809 18H4.01752C4.36257 18 4.64223 17.7203 4.64223 17.3753V16.6465H5.1701C5.44309 16.6446 5.70046 16.6421 5.94517 16.6394V17.3753C5.94517 17.7203 6.22483 18 6.56988 18H7.81934C8.1644 18 8.44402 17.7203 8.44402 17.3753V16.5752C8.61748 16.5654 8.76056 16.5546 8.869 16.543C9.68409 16.4532 10.3696 16.2131 10.9255 15.8229C11.4815 15.4326 11.9201 14.9112 12.2414 14.2584C12.5625 13.6056 12.7231 12.934 12.7231 12.2433C12.7231 11.366 12.4744 10.6028 11.9771 9.95352C11.4799 9.30424 10.7683 8.84486 9.84275 8.57538ZM4.82821 3.98566C6.27192 3.98566 7.14567 4.00294 7.44952 4.03748C7.96068 4.09975 8.34575 4.2776 8.60479 4.571C8.86383 4.86441 8.99336 5.24611 8.99336 5.7159C8.99336 6.20631 8.84304 6.60172 8.54252 6.9022C8.24208 7.20271 7.82931 7.38407 7.30436 7.44613C7.01429 7.4807 6.27168 7.49796 5.07684 7.49796H3.06694V3.98566H4.82821ZM9.1227 13.3882C8.83593 13.7093 8.46484 13.9115 8.00883 13.9943C7.71172 14.0566 7.01079 14.0876 5.90563 14.0876H3.06674V10.026H5.54285C6.93804 10.026 7.84473 10.0984 8.26266 10.2436C8.6806 10.3887 9 10.6201 9.22096 10.9378C9.44186 11.2556 9.55244 11.6423 9.55244 12.0983C9.55268 12.6368 9.40946 13.0668 9.1227 13.3882Z" fill="white"/>
</svg>
