<svg width="20" height="20" viewBox="0 0 20 20" fill="none" xmlns="http://www.w3.org/2000/svg">
<mask id="path-1-outside-1" maskUnits="userSpaceOnUse" x="0" y="0" width="20" height="20" fill="black">
<rect fill="white" width="20" height="20"/>
<path fill-rule="evenodd" clip-rule="evenodd" d="M10 18C14.4183 18 18 14.4183 18 10C18 5.58172 14.4183 2 10 2C5.58172 2 2 5.58172 2 10C2 11.7265 2.5469 13.3252 3.47692 14.6325C3.50932 14.678 3.52191 14.7348 3.51097 14.7896L3.06759 17.0099C3.03799 17.1581 3.1772 17.2843 3.32183 17.2404L5.37094 16.6181C5.42925 16.6004 5.49235 16.6104 5.54293 16.6444C6.81663 17.5005 8.34998 18 10 18Z"/>
</mask>
<path d="M5.37094 16.6181L4.93508 15.1828L5.37094 16.6181ZM5.54293 16.6444L4.70618 17.8893L5.54293 16.6444ZM3.32183 17.2404L3.7577 18.6757L3.32183 17.2404ZM3.47692 14.6325L2.25468 15.502L3.47692 14.6325ZM3.51097 14.7896L4.98192 15.0833L3.51097 14.7896ZM16.5 10C16.5 13.5899 13.5899 16.5 10 16.5V19.5C15.2467 19.5 19.5 15.2467 19.5 10H16.5ZM10 3.5C13.5899 3.5 16.5 6.41015 16.5 10H19.5C19.5 4.75329 15.2467 0.5 10 0.5V3.5ZM3.5 10C3.5 6.41015 6.41015 3.5 10 3.5V0.5C4.75329 0.5 0.5 4.75329 0.5 10H3.5ZM4.69916 13.7629C3.94386 12.7013 3.5 11.4047 3.5 10H0.5C0.5 12.0483 1.14995 13.9492 2.25468 15.502L4.69916 13.7629ZM4.53855 17.3036L4.98192 15.0833L2.04001 14.4959L1.59663 16.7161L4.53855 17.3036ZM4.93508 15.1828L2.88597 15.8051L3.7577 18.6757L5.8068 18.0534L4.93508 15.1828ZM10 16.5C8.65724 16.5 7.41375 16.0945 6.37968 15.3994L4.70618 17.8893C6.2195 18.9065 8.04271 19.5 10 19.5V16.5ZM5.8068 18.0534C5.42466 18.1695 5.02162 18.1013 4.70618 17.8893L6.37968 15.3994C5.96309 15.1194 5.43384 15.0314 4.93508 15.1828L5.8068 18.0534ZM1.59663 16.7161C1.34503 17.9761 2.52829 19.049 3.7577 18.6757L2.88597 15.8051C3.8261 15.5196 4.73096 16.3401 4.53855 17.3036L1.59663 16.7161ZM2.25468 15.502C2.05243 15.2177 1.96829 14.855 2.04001 14.4959L4.98192 15.0833C5.07553 14.6146 4.96621 14.1383 4.69916 13.7629L2.25468 15.502Z" fill="white" mask="url(#path-1-outside-1)"/>
<circle cx="6" cy="10" r="1" fill="white"/>
<circle cx="10" cy="10" r="1" fill="white"/>
<circle cx="14" cy="10" r="1" fill="white"/>
</svg>
