<svg width="22" height="23" viewBox="0 0 22 23" fill="none" xmlns="http://www.w3.org/2000/svg">
<path d="M10.0345 22.7316C9.90112 22.6419 9.74645 22.67 9.60512 22.6532C7.15712 22.3367 5.06645 21.2559 3.33845 19.4189C1.83978 17.8284 0.893117 15.9271 0.487784 13.729C0.381117 13.1465 0.343784 12.5585 0.335784 11.9649C0.325117 10.9288 0.35445 9.90113 0.629117 8.89867C1.76778 4.7236 4.31978 1.99343 8.31978 0.895757C11.3545 0.0641034 14.2131 0.668942 16.8291 2.49466C17.2291 2.77188 17.3305 3.28151 17.0878 3.69034C16.8478 4.09076 16.3571 4.21397 15.9491 3.95075C15.4451 3.62593 14.9465 3.30391 14.3998 3.0575C13.0478 2.44986 11.6425 2.20344 10.1784 2.31825C8.66112 2.43866 7.25845 2.92309 5.99978 3.81354C3.79712 5.37324 2.44245 7.52938 2.05045 10.2988C1.72245 12.6229 2.17045 14.8014 3.41312 16.756C4.88778 19.0745 6.94912 20.4886 9.58645 20.9002C11.5865 21.2139 13.4798 20.8246 15.2478 19.7886C15.3731 19.7158 15.4985 19.6318 15.6318 19.5814C16.0238 19.4301 16.4585 19.6262 16.6398 20.0182C16.8291 20.4326 16.7011 20.8946 16.3118 21.1439C15.8798 21.4211 15.4265 21.6647 14.9571 21.8691C13.8905 22.3311 12.7838 22.6223 11.6291 22.698C11.5998 22.7008 11.5758 22.7036 11.5651 22.7372C11.2638 22.7372 10.9598 22.7372 10.6585 22.7372C10.5065 22.7008 10.3571 22.7008 10.2051 22.7372C10.1465 22.7316 10.0905 22.7316 10.0345 22.7316Z" fill="white"/>
<path d="M10.1997 22.7315C10.3517 22.6447 10.501 22.6783 10.653 22.7315C10.5037 22.7315 10.3517 22.7315 10.1997 22.7315Z" fill="white"/>
<path d="M11.0586 15.8823C10.3786 15.8823 9.86389 15.6723 9.43722 15.2467C8.01322 13.8326 6.59189 12.4185 5.17322 11.0016C4.92522 10.7552 4.81855 10.4584 4.91989 10.0999C5.01322 9.77512 5.22122 9.57071 5.53322 9.49511C5.85055 9.4167 6.10922 9.54271 6.33589 9.76952C6.80255 10.2372 7.27455 10.7048 7.74122 11.1696C8.65322 12.0797 9.56789 12.9869 10.4799 13.897C10.8319 14.247 11.0852 14.233 11.3892 13.8382C14.2266 10.1335 17.0612 6.42611 19.8986 2.72147C20.2586 2.25104 20.7999 2.18944 21.1706 2.56746C21.4932 2.89788 21.5092 3.37111 21.2026 3.77714C20.7626 4.35958 20.3172 4.93641 19.8719 5.51605C17.4479 8.68025 15.0239 11.8473 12.6026 15.0143C12.1812 15.5687 11.6346 15.8543 11.0586 15.8823Z" fill="white"/>
<path d="M21.4237 11.5057C21.3783 13.9474 20.789 15.9216 19.677 17.7249C19.397 18.1813 18.9223 18.3073 18.501 18.0413C18.1197 17.8005 18.005 17.2657 18.2717 16.826C18.8397 15.888 19.277 14.8967 19.5223 13.813C19.861 12.3261 19.8503 10.842 19.5037 9.35795C19.4183 8.99392 19.4823 8.6635 19.7677 8.41989C20.029 8.19867 20.325 8.15667 20.637 8.30508C20.877 8.41989 21.0263 8.6215 21.0903 8.88752C21.317 9.83958 21.4317 10.8112 21.4237 11.5057Z" fill="white"/>
</svg>
