<svg width="19" height="19" viewBox="0 0 19 19" fill="none" xmlns="http://www.w3.org/2000/svg">
<path d="M3.67909 4.04761H3.5C2.11929 4.04761 1 5.1669 1 6.54761V15.5624C1 16.9432 2.11929 18.0624 3.5 18.0624H14.5745C15.9552 18.0624 17.0745 16.9432 17.0745 15.5624V5.83366C17.0745 4.84725 16.2749 4.04761 15.2885 4.04761V4.04761M3.67909 4.04761L11.6931 1.02067C13.1183 0.482359 14.6895 1.33308 15.0178 2.82078L15.2885 4.04761M3.67909 4.04761H15.2885" stroke="white" stroke-width="1.5"/>
<path d="M15.9763 9.03125H11.9867C10.869 9.03125 9.96289 9.93734 9.96289 11.0551C9.96289 12.1728 10.869 13.0789 11.9867 13.0789H15.9763C17.0941 13.0789 18.0001 12.1728 18.0001 11.0551C18.0001 9.93734 17.0941 9.03125 15.9763 9.03125Z" fill="#090D17" stroke="white" stroke-width="1.5"/>
</svg>
