<svg width="21" height="19" viewBox="0 0 21 19" fill="none" xmlns="http://www.w3.org/2000/svg">
<path d="M10.452 15.1169H2.89644C1.80288 15.1169 1.00756 14.2222 1.00756 13.2281V4.38014C0.908144 3.28658 1.80288 2.39185 2.89644 2.39185H14.6274C15.7209 2.39185 16.5163 3.28658 16.5163 4.28073V8.95322" stroke="white" stroke-width="1.5" stroke-miterlimit="10" stroke-linecap="round" stroke-linejoin="round"/>
<path d="M4.88477 3.78361V1" stroke="white" stroke-width="1.5" stroke-miterlimit="10" stroke-linecap="round" stroke-linejoin="round"/>
<path d="M12.6392 3.78361V1" stroke="white" stroke-width="1.5" stroke-miterlimit="10" stroke-linecap="round" stroke-linejoin="round"/>
<path d="M14.7267 18C17.3072 18 19.3992 15.9081 19.3992 13.3275C19.3992 10.747 17.3072 8.65503 14.7267 8.65503C12.1461 8.65503 10.0542 10.747 10.0542 13.3275C10.0542 15.9081 12.1461 18 14.7267 18Z" stroke="white" stroke-width="1.5" stroke-miterlimit="10" stroke-linecap="round" stroke-linejoin="round"/>
<path d="M14.7271 11.4194V13.3274L15.8206 14.3216" stroke="white" stroke-width="1.5" stroke-miterlimit="10" stroke-linecap="round" stroke-linejoin="round"/>
</svg>
