<svg width="21" height="19" viewBox="0 0 21 19" fill="none" xmlns="http://www.w3.org/2000/svg">
<path fill-rule="evenodd" clip-rule="evenodd" d="M3.6075 14.488C3.67523 14.4131 3.75779 14.3532 3.84984 14.3122C3.94189 14.2713 4.04146 14.2501 4.14212 14.25L20.638 14.2636C20.7083 14.2637 20.777 14.2844 20.8358 14.323C20.8946 14.3616 20.9409 14.4166 20.9693 14.4813C20.9976 14.5459 21.0066 14.6174 20.9952 14.6871C20.9839 14.7568 20.9527 14.8217 20.9053 14.8738L17.3925 18.762C17.3247 18.837 17.2421 18.8969 17.15 18.9378C17.0578 18.9788 16.9582 19 16.8574 19L0.361978 18.9864C0.29173 18.9863 0.223032 18.9656 0.164235 18.927C0.105435 18.8884 0.0590655 18.8334 0.030757 18.7687C0.00244635 18.7041 -0.00658328 18.6326 0.00476169 18.5629C0.0161067 18.4932 0.0473402 18.4283 0.0946664 18.3762L3.6075 14.488ZM20.9053 11.2512C20.9527 11.3033 20.9839 11.3682 20.9952 11.4379C21.0066 11.5076 20.9976 11.5791 20.9693 11.6437C20.9409 11.7084 20.8946 11.7634 20.8358 11.802C20.777 11.8406 20.7083 11.8613 20.638 11.8614L4.14257 11.875C4.04184 11.875 3.94218 11.8538 3.85004 11.8128C3.7579 11.7719 3.6753 11.712 3.6075 11.637L0.0946664 7.74657C0.0473402 7.69439 0.0161067 7.6295 0.00476169 7.55981C-0.00658328 7.49012 0.00244635 7.41862 0.030757 7.354C0.0590655 7.28935 0.105435 7.23439 0.164235 7.19575C0.223032 7.1571 0.29173 7.13645 0.361978 7.13631L16.8579 7.12274C16.9585 7.12281 17.0581 7.144 17.1502 7.18499C17.2422 7.22595 17.3248 7.2858 17.3925 7.36069L20.9053 11.2512ZM3.6075 0.237952C3.67523 0.163064 3.75779 0.103217 3.84984 0.0622422C3.94189 0.0212672 4.04146 6.74235e-05 4.14212 0L20.638 0.0135714C20.7083 0.013715 20.777 0.0343622 20.8358 0.0730048C20.8946 0.111647 20.9409 0.166623 20.9693 0.231253C20.9976 0.295882 21.0066 0.367385 20.9952 0.437077C20.9839 0.506766 20.9527 0.571647 20.9053 0.623833L17.3925 4.51205C17.3247 4.58698 17.2421 4.64688 17.15 4.68784C17.0578 4.72883 16.9582 4.75 16.8574 4.75L0.361978 4.73643C0.29173 4.73629 0.223032 4.71564 0.164235 4.67699C0.105435 4.63835 0.0590655 4.58339 0.030757 4.51874C0.00244635 4.45412 -0.00658328 4.38262 0.00476169 4.31293C0.0161067 4.24324 0.0473402 4.17835 0.0946664 4.12617L3.6075 0.237952Z" fill="#393939"/>
</svg>
