<svg width="679" height="609" viewBox="0 0 679 609" fill="none" xmlns="http://www.w3.org/2000/svg">
<path fill-rule="evenodd" clip-rule="evenodd" d="M117.1 464.377C119.285 461.977 121.949 460.058 124.919 458.745C127.889 457.431 131.102 456.752 134.35 456.75L666.626 457.185C668.893 457.189 671.109 457.851 673.007 459.09C674.904 460.329 676.401 462.091 677.314 464.162C678.228 466.234 678.519 468.525 678.153 470.759C677.787 472.993 676.779 475.073 675.252 476.746L561.902 601.373C559.715 603.775 557.05 605.695 554.077 607.008C551.103 608.321 547.888 609 544.637 609L12.3758 608.565C10.1091 608.561 7.89241 607.899 5.99519 606.66C4.0979 605.421 2.60168 603.66 1.68824 601.588C0.774738 599.516 0.483377 597.225 0.849447 594.991C1.21552 592.757 2.22334 590.677 3.75042 589.004L117.1 464.377ZM675.252 360.63C676.779 362.302 677.787 364.382 678.153 366.616C678.519 368.85 678.228 371.141 677.314 373.213C676.401 375.285 674.904 377.046 673.007 378.285C671.109 379.524 668.893 380.186 666.626 380.19L134.365 380.625C131.114 380.625 127.899 379.946 124.926 378.633C121.953 377.32 119.287 375.4 117.1 372.998L3.75042 248.298C2.22334 246.625 1.21552 244.545 0.849447 242.312C0.483377 240.078 0.774738 237.786 1.68824 235.715C2.60168 233.643 4.0979 231.881 5.99519 230.643C7.89241 229.404 10.1091 228.742 12.3758 228.737L544.651 228.303C547.9 228.305 551.113 228.984 554.083 230.298C557.053 231.611 559.717 233.529 561.902 235.93L675.252 360.63ZM117.1 7.627C119.285 5.22664 121.949 3.30838 124.919 1.99503C127.889 0.68167 131.102 0.0021611 134.35 0L666.626 0.435C668.893 0.439602 671.109 1.1014 673.007 2.34C674.904 3.57859 676.401 5.34069 677.314 7.41225C678.228 9.4838 678.519 11.7757 678.153 14.0095C677.787 16.2432 676.779 18.3228 675.252 19.9955L561.902 144.623C559.715 147.025 557.05 148.945 554.077 150.258C551.103 151.571 547.888 152.25 544.637 152.25L12.3758 151.815C10.1091 151.811 7.89241 151.149 5.99519 149.91C4.0979 148.671 2.60168 146.91 1.68824 144.838C0.774738 142.766 0.483377 140.475 0.849447 138.241C1.21552 136.007 2.22334 133.927 3.75042 132.255L117.1 7.627Z" fill="#83E1FF" fill-opacity="0.05"/>
</svg>
