<svg width="22" height="19" viewBox="0 0 22 19" fill="none" xmlns="http://www.w3.org/2000/svg">
<path fill-rule="evenodd" clip-rule="evenodd" d="M3.77929 14.488C3.85024 14.4131 3.93673 14.3532 4.03316 14.3122C4.1296 14.2713 4.23391 14.2501 4.33937 14.25L21.6208 14.2636C21.6944 14.2637 21.7663 14.2844 21.828 14.323C21.8895 14.3616 21.9381 14.4166 21.9678 14.4813C21.9974 14.5459 22.0069 14.6174 21.995 14.6871C21.9831 14.7568 21.9504 14.8217 21.9008 14.8738L18.2207 18.762C18.1497 18.837 18.0632 18.8969 17.9666 18.9378C17.8701 18.9788 17.7657 19 17.6601 19L0.379215 18.9864C0.305622 18.9863 0.233653 18.9656 0.172056 18.927C0.110456 18.8884 0.0618781 18.8334 0.0322217 18.7687C0.00256284 18.7041 -0.00689677 18.6326 0.00498844 18.5629C0.0168737 18.4932 0.0495945 18.4283 0.0991744 18.3762L3.77929 14.488ZM21.9008 11.2512C21.9504 11.3033 21.9831 11.3682 21.995 11.4379C22.0069 11.5076 21.9974 11.5791 21.9678 11.6437C21.9381 11.7084 21.8895 11.7634 21.828 11.802C21.7663 11.8406 21.6944 11.8613 21.6208 11.8614L4.33984 11.875C4.23431 11.875 4.1299 11.8538 4.03338 11.8128C3.93685 11.7719 3.85031 11.712 3.77929 11.637L0.0991744 7.74657C0.0495945 7.69439 0.0168737 7.6295 0.00498844 7.55981C-0.00689677 7.49012 0.00256284 7.41862 0.0322217 7.354C0.0618781 7.28935 0.110456 7.23439 0.172056 7.19575C0.233653 7.1571 0.305622 7.13645 0.379215 7.13631L17.6606 7.12274C17.7661 7.12281 17.8704 7.144 17.9668 7.18499C18.0633 7.22595 18.1498 7.2858 18.2207 7.36069L21.9008 11.2512ZM3.77929 0.237952C3.85024 0.163064 3.93673 0.103217 4.03316 0.0622422C4.1296 0.0212672 4.23391 6.74235e-05 4.33937 0L21.6208 0.0135714C21.6944 0.013715 21.7663 0.0343622 21.828 0.0730048C21.8895 0.111647 21.9381 0.166623 21.9678 0.231253C21.9974 0.295882 22.0069 0.367385 21.995 0.437077C21.9831 0.506766 21.9504 0.571647 21.9008 0.623833L18.2207 4.51205C18.1497 4.58698 18.0632 4.64688 17.9666 4.68784C17.8701 4.72883 17.7657 4.75 17.6601 4.75L0.379215 4.73643C0.305622 4.73629 0.233653 4.71564 0.172056 4.67699C0.110456 4.63835 0.0618781 4.58339 0.0322217 4.51874C0.00256284 4.45412 -0.00689677 4.38262 0.00498844 4.31293C0.0168737 4.24324 0.0495945 4.17835 0.0991744 4.12617L3.77929 0.237952Z" fill="#393939"/>
</svg>
